<svg xmlns="http://www.w3.org/2000/svg" xmlns:xlink="http://www.w3.org/1999/xlink"
     xmlns:rdf="http://www.w3.org/1999/02/22-rdf-syntax-ns#"
     xmlns:cc="http://creativecommons.org/ns#"
     xmlns:dc="http://purl.org/dc/elements/1.1/">

  <symbol id="github" viewBox="0 0 16 16">
    <title>GitHub</title>
    <desc>GitHub logo</desc>
    <path d="M8 0C3.58 0 0 3.58 0 8c0 3.54 2.29 6.53 5.47 7.59.4.07.55-.17.55-.38 0-.19-.01-.82-.01-1.49-2.01.37-2.53-.49-2.69-.94-.09-.23-.48-.94-.82-1.13-.28-.15-.68-.52-.01-.53.63-.01 1.08.58 1.23.82.72 1.21 1.87.87 2.33.66.07-.52.28-.87.51-1.07-1.78-.2-3.64-.89-3.64-3.95 0-.87.31-1.59.82-2.15-.08-.2-.36-1.02.08-2.12 0 0 .67-.21 2.2.82.64-.18 1.32-.27 2-.27.68 0 1.36.09 2 .27 1.53-1.04 2.2-.82 2.2-.82.44 1.1.16 1.92.08 2.12.51.56.82 1.27.82 2.15 0 3.07-1.87 3.75-3.65 3.95.29.25.54.73.54 1.48 0 1.07-.01 1.93-.01 2.2 0 .21.15.46.55.38A8.012 8.012 0 0 0 16 8c0-4.42-3.58-8-8-8z"/>
  </symbol>
  
  <symbol id="twitter" viewBox="0 0 16 16">
    <title>Twitter</title>
    <desc>Twitter logo</desc>
    <path d="M5.026 15c6.038 0 9.341-5.003 9.341-9.334 0-.14 0-.282-.006-.422A6.685 6.685 0 0 0 16 3.542a6.658 6.658 0 0 1-1.889.518 3.301 3.301 0 0 0 1.447-1.817 6.533 6.533 0 0 1-2.087.793A3.286 3.286 0 0 0 7.875 6.03a9.325 9.325 0 0 1-6.767-3.429 3.289 3.289 0 0 0 1.018 4.382A3.323 3.323 0 0 1 .64 6.575v.045a3.288 3.288 0 0 0 2.632 3.218 3.203 3.203 0 0 1-.865.115 3.23 3.23 0 0 1-.614-.057 3.283 3.283 0 0 0 3.067 2.277A6.588 6.588 0 0 1 .78 13.58a6.32 6.32 0 0 1-.78-.045A9.344 9.344 0 0 0 5.026 15z"/>
  </symbol>

  <symbol id="mastodon" viewBox="0 0 74 79">
    <title>Mastodon</title>
    <desc>Mastodon logo</desc>
    <path d="M73.7014 17.9592C72.5616 9.62034 65.1774 3.04876 56.424 1.77536C54.9472 1.56019 49.3517 0.7771 36.3901 0.7771H36.2933C23.3281 0.7771 20.5465 1.56019 19.0697 1.77536C10.56 3.01348 2.78877 8.91838 0.903306 17.356C-0.00357857 21.5113 -0.100361 26.1181 0.068112 30.3439C0.308275 36.404 0.354874 42.4535 0.91406 48.489C1.30064 52.498 1.97502 56.4751 2.93215 60.3905C4.72441 67.6217 11.9795 73.6395 19.0876 76.0945C26.6979 78.6548 34.8821 79.0799 42.724 77.3221C43.5866 77.1245 44.4398 76.8953 45.2833 76.6342C47.1867 76.0381 49.4199 75.3714 51.0616 74.2003C51.0841 74.1839 51.1026 74.1627 51.1156 74.1382C51.1286 74.1138 51.1359 74.0868 51.1368 74.0592V68.2108C51.1364 68.185 51.1302 68.1596 51.1185 68.1365C51.1069 68.1134 51.0902 68.0932 51.0695 68.0773C51.0489 68.0614 51.0249 68.0503 50.9994 68.0447C50.9738 68.0391 50.9473 68.0392 50.9218 68.045C45.8976 69.226 40.7491 69.818 35.5836 69.8087C26.694 69.8087 24.3031 65.6569 23.6184 63.9285C23.0681 62.4347 22.7186 60.8764 22.5789 59.2934C22.5775 59.2669 22.5825 59.2403 22.5934 59.216C22.6043 59.1916 22.621 59.1702 22.6419 59.1533C22.6629 59.1365 22.6876 59.1248 22.714 59.1191C22.7404 59.1134 22.7678 59.1139 22.794 59.1206C27.7345 60.2936 32.799 60.8856 37.8813 60.8843C39.1036 60.8843 40.3223 60.8843 41.5447 60.8526C46.6562 60.7115 52.0437 60.454 57.0728 59.4874C57.1983 59.4628 57.3237 59.4416 57.4313 59.4098C65.3638 57.9107 72.9128 53.2051 73.6799 41.2895C73.7086 40.8204 73.7803 36.3758 73.7803 35.889C73.7839 34.2347 74.3216 24.1533 73.7014 17.9592ZM61.4925 47.6918H53.1514V27.5855C53.1514 23.3526 51.3591 21.1938 47.7136 21.1938C43.7061 21.1938 41.6988 23.7476 41.6988 28.7919V39.7974H33.4078V28.7919C33.4078 23.7476 31.3969 21.1938 27.3894 21.1938C23.7654 21.1938 21.9552 23.3526 21.9516 27.5855V47.6918H13.6176V26.9752C13.6176 22.7423 14.7157 19.3795 16.9118 16.8868C19.1772 14.4 22.1488 13.1231 25.8373 13.1231C30.1064 13.1231 33.3325 14.7386 35.4832 17.9662L37.5587 21.3949L39.6377 17.9662C41.7884 14.7386 45.0145 13.1231 49.2765 13.1231C52.9614 13.1231 55.9329 14.4 58.2055 16.8868C60.4017 19.3772 61.4997 22.74 61.4997 26.9752L61.4925 47.6918Z"/>
  </symbol>
  
  <symbol id="envelope" viewBox="0 0 16 16">
    <title>email</title>
    <desc>email address</desc>
    <path d="M.05 3.555A2 2 0 0 1 2 2h12a2 2 0 0 1 1.95 1.555L8 8.414.05 3.555zM0 4.697v7.104l5.803-3.558L0 4.697zM6.761 8.83l-6.57 4.027A2 2 0 0 0 2 14h12a2 2 0 0 0 1.808-1.144l-6.57-4.027L8 9.586l-1.239-.757zm3.436-.586L16 11.801V4.697l-5.803 3.546z"/>
  </symbol>
  
  <symbol id="key" viewBox="0 0 16 16">
    <title>OpenPGP key</title>
    <desc>OpenPGP key</desc>
    <path d="M3.5 11.5a3.5 3.5 0 1 1 3.163-5H14L15.5 8 14 9.5l-1-1-1 1-1-1-1 1-1-1-1 1H6.663a3.5 3.5 0 0 1-3.163 2zM2.5 9a1 1 0 1 0 0-2 1 1 0 0 0 0 2z"/>
  </symbol>
  
  <symbol id="camera" viewBox="0 0 16 16">
    <title>video</title>
    <desc>video</desc>
    <path d="M6 3a3 3 0 1 1-6 0 3 3 0 0 1 6 0zM1 3a2 2 0 1 0 4 0 2 2 0 0 0-4 0z"/>
    <path d="M9 6h.5a2 2 0 0 1 1.983 1.738l3.11-1.382A1 1 0 0 1 16 7.269v7.462a1 1 0 0 1-1.406.913l-3.111-1.382A2 2 0 0 1 9.5 16H2a2 2 0 0 1-2-2V8a2 2 0 0 1 2-2h7zm6 8.73V7.27l-3.5 1.555v4.35l3.5 1.556zM1 8v6a1 1 0 0 0 1 1h7.5a1 1 0 0 0 1-1V8a1 1 0 0 0-1-1H2a1 1 0 0 0-1 1z"/>
    <path d="M9 6a3 3 0 1 0 0-6 3 3 0 0 0 0 6zM7 3a2 2 0 1 1 4 0 2 2 0 0 1-4 0z"/>
  </symbol>
  
  <symbol id="download" viewBox="0 0 16 16">
    <title>download</title>
    <desc>download</desc>
    <path d="M4.406 1.342A5.53 5.53 0 0 1 8 0c2.69 0 4.923 2 5.166 4.579C14.758 4.804 16 6.137 16 7.773 16 9.569 14.502 11 12.687 11H10a.5.5 0 0 1 0-1h2.688C13.979 10 15 8.988 15 7.773c0-1.216-1.02-2.228-2.313-2.228h-.5v-.5C12.188 2.825 10.328 1 8 1a4.53 4.53 0 0 0-2.941 1.1c-.757.652-1.153 1.438-1.153 2.055v.448l-.445.049C2.064 4.805 1 5.952 1 7.318 1 8.785 2.23 10 3.781 10H6a.5.5 0 0 1 0 1H3.781C1.708 11 0 9.366 0 7.318c0-1.763 1.266-3.223 2.942-3.593.143-.863.698-1.723 1.464-2.383z"/>
    <path d="M7.646 15.854a.5.5 0 0 0 .708 0l3-3a.5.5 0 0 0-.708-.708L8.5 14.293V5.5a.5.5 0 0 0-1 0v8.793l-2.146-2.147a.5.5 0 0 0-.708.708l3 3z"/>
  </symbol>
  
  <symbol id="external" viewBox="0 0 16 19" fill-rule="evenodd">
    <title>link</title>
    <desc>external link</desc>
    <path d="M8.636 3.5a.5.5 0 0 0-.5-.5H1.5A1.5 1.5 0 0 0 0 4.5v10A1.5 1.5 0 0 0 1.5 16h10a1.5 1.5 0 0 0 1.5-1.5V7.864a.5.5 0 0 0-1 0V14.5a.5.5 0 0 1-.5.5h-10a.5.5 0 0 1-.5-.5v-10a.5.5 0 0 1 .5-.5h6.636a.5.5 0 0 0 .5-.5z"/>
    <path d="M16 .5a.5.5 0 0 0-.5-.5h-5a.5.5 0 0 0 0 1h3.793L6.146 9.146a.5.5 0 1 0 .708.708L15 1.707V5.5a.5.5 0 0 0 1 0v-5z"/>
  </symbol>

  <symbol id="open-access" viewBox="0 0 640 1000">
    <metadata><rdf:RDF><cc:Work rdf:about="">
      <dc:creator>art designer at PLoS, modified by Wikipedia users Nina, Beao, JakobVoss, and AnonMoos</dc:creator>
      <dc:description>Open Access logo, converted into svg, designed by PLoS. This version with transparent background.</dc:description>
      <dc:source>http://commons.wikimedia.org/wiki/File:Open_Access_logo_PLoS_white.svg</dc:source>
      <dc:license rdf:resource="http://creativecommons.org/licenses/by-sa/3.0/"/>
      <cc:license rdf:resource="http://creativecommons.org/licenses/by-sa/3.0/"/>
      <cc:attributionName>art designer at PLoS, modified by Wikipedia users Nina, Beao, JakobVoss, and AnonMoos</cc:attributionName>
      <cc:attributionURL>http://www.plos.org/</cc:attributionURL>
    </cc:Work></rdf:RDF></metadata>
    <title>OpenAccess</title>
    <desc>OpenAccess download</desc>
    <g stroke="#f68212" stroke-width="104.764" fill="none">
      <path d="M111.387,308.135V272.408A209.21,209.214 0 0,1 529.807,272.408V530.834"/>
      <circle cx="320.004" cy="680.729" r="256.083"/>
    </g>
    <circle fill="#f68212" cx="321.01" cy="681.659" r="86.4287"/>
  </symbol>

  <symbol id="open-access-text" viewBox="0 0 900 360">
    <defs>
      <clipPath clipPathUnits="userSpaceOnUse">
	<path d="M 0,288 L 720,288 L 720,0 L 0,0 L 0,288 z"/>
      </clipPath>
    </defs>
    <title>download</title>
    <desc>OpenAccess download</desc>
    <g transform="matrix(1.25,0,0,-1.25,0,360)" fill="#f68212" fill-opacity="1"
       fill-rule="nonzero" stroke="none">
      <path d="m 262.883,200.896 v -8.846 h 25.939 v 8.846 c 0,21.412 17.421,38.831 38.83,38.831 21.409,0 38.829,-17.419 38.829,-38.831 v -63.985 h 25.939 v 63.985 c 0,35.713 -29.056,64.769 -64.768,64.769 -35.711,0 -64.769,-29.056 -64.769,-64.769" />
      <path d="m 349.153,99.568 c 0,-11.816 -9.58,-21.396 -21.399,-21.396 -11.818,0 -21.399,9.58 -21.399,21.396 0,11.823 9.581,21.404 21.399,21.404 11.819,0 21.399,-9.581 21.399,-21.404" />
      <path d="m 277.068,99.799 c 0,27.811 22.627,50.436 50.437,50.436 27.809,0 50.433,-22.625 50.433,-50.436 0,-27.808 -22.624,-50.437 -50.433,-50.437 -27.81,0 -50.437,22.629 -50.437,50.437 m -25.938,0 c 0,-42.108 34.265,-76.373 76.375,-76.373 42.111,0 76.373,34.265 76.373,76.373 0,42.114 -34.262,76.375 -76.373,76.375 -42.11,0 -76.375,-34.261 -76.375,-76.375" />
      <path d="m 51.742,106.854 c 7.948,0 12.499,7.485 12.499,17.667 0,9.339 -4.396,17.368 -12.499,17.368 -8.103,0 -12.657,-7.87 -12.657,-17.596 0,-9.803 4.708,-17.439 12.581,-17.439 z m -0.54,-9.341 c -15.356,0 -24.461,11.653 -24.461,26.468 0,15.594 10.03,27.24 25.31,27.24 15.972,0 24.691,-11.956 24.691,-26.31 0,-17.135 -10.264,-27.398 -25.465,-27.398 z" />
      <path d="m 98.851,126.071 c 1.001,-0.237 2.237,-0.31 3.931,-0.31 6.254,0 10.11,3.164 10.11,8.409 0,4.785 -3.241,7.639 -9.181,7.639 -2.392,0 -4.013,-0.153 -4.86,-0.382 z m -11.653,23.608 c 3.625,0.618 8.72,1.079 15.897,1.079 7.25,0 12.499,-1.383 15.971,-4.243 3.32,-2.543 5.48,-6.868 5.48,-11.961 0,-5.168 -1.621,-9.49 -4.708,-12.345 -4.014,-3.703 -10.031,-5.478 -16.977,-5.478 -1.542,0 -2.932,0.076 -4.01,0.312 V 98.363 H 87.198 Z" />
      <path d="m 165.711,120.357 h -19.139 v -12.343 h 21.376 v -9.651 h -33.103 v 52.013 h 32.023 v -9.647 h -20.296 v -10.803 h 19.139 z" />
      <path d="m 181.763,98.363 v 52.013 h 13.734 l 10.801,-19.059 c 3.091,-5.483 6.097,-11.961 8.489,-17.827 h 0.157 c -0.694,6.867 -0.929,13.888 -0.929,21.762 v 15.124 H 224.82 V 98.363 h -12.346 l -11.112,20.064 c -3.088,5.636 -6.56,12.27 -9.029,18.366 h -0.309 c 0.384,-6.944 0.54,-14.273 0.54,-22.762 V 98.363 Z" />
      <path d="m 450.392,120.509 -3.239,11.038 c -0.849,3.085 -1.778,7.019 -2.549,10.032 h -0.226 c -0.698,-3.085 -1.548,-7.019 -2.32,-10.032 l -3.16,-11.038 z m -13.196,-8.791 -3.623,-13.355 h -12.196 l 15.896,52.013 h 15.361 l 16.199,-52.013 h -12.654 l -4.014,13.355 z" />
      <path d="m 513.19,99.755 c -2.083,-1.003 -7.02,-2.242 -13.272,-2.242 -17.979,0 -27.24,11.271 -27.24,26.159 0,17.755 12.658,27.554 28.397,27.554 6.1,0 10.727,-1.238 12.811,-2.319 l -2.467,-9.26 c -2.319,1.001 -5.631,1.932 -9.88,1.932 -9.261,0 -16.516,-5.635 -16.516,-17.286 0,-10.414 6.175,-16.978 16.595,-16.978 3.621,0 7.482,0.699 9.875,1.7 z" />
      <path d="m 559.468,99.755 c -2.085,-1.003 -7.02,-2.242 -13.276,-2.242 -17.977,0 -27.238,11.271 -27.238,26.159 0,17.755 12.658,27.554 28.399,27.554 6.097,0 10.725,-1.238 12.809,-2.319 l -2.469,-9.26 c -2.313,1.001 -5.636,1.932 -9.879,1.932 -9.259,0 -16.513,-5.635 -16.513,-17.286 0,-10.414 6.175,-16.978 16.59,-16.978 3.63,0 7.489,0.699 9.878,1.7 z" />
      <path d="m 603.989,120.357 h -19.137 v -12.343 h 21.377 v -9.651 h -33.105 v 52.013 h 32.027 v -9.647 h -20.299 v -10.803 h 19.137 z" />
      <path d="m 620.428,110.406 c 3.085,-1.622 8.024,-3.244 13.04,-3.244 5.399,0 8.258,2.236 8.258,5.708 0,3.163 -2.468,5.095 -8.721,7.256 -8.642,3.085 -14.355,7.87 -14.355,15.509 0,8.876 7.487,15.591 19.679,15.591 5.942,0 10.184,-1.16 13.273,-2.622 l -2.625,-9.418 c -2.004,1.002 -5.79,2.47 -10.798,2.47 -5.1,0 -7.566,-2.391 -7.566,-5.015 0,-3.32 2.855,-4.783 9.646,-7.406 9.182,-3.401 13.429,-8.179 13.429,-15.589 0,-8.725 -6.636,-16.133 -20.914,-16.133 -5.941,0 -11.809,1.621 -14.739,3.243 z" />
      <path d="m 664.835,110.406 c 3.087,-1.622 8.023,-3.244 13.038,-3.244 5.404,0 8.26,2.236 8.26,5.708 0,3.163 -2.471,5.095 -8.724,7.256 -8.638,3.085 -14.348,7.87 -14.348,15.509 0,8.876 7.479,15.591 19.673,15.591 5.944,0 10.188,-1.16 13.275,-2.622 l -2.623,-9.418 c -2.005,1.002 -5.786,2.47 -10.804,2.47 -5.094,0 -7.561,-2.391 -7.561,-5.015 0,-3.32 2.852,-4.783 9.644,-7.406 9.181,-3.401 13.426,-8.179 13.426,-15.589 0,-8.725 -6.637,-16.133 -20.913,-16.133 -5.938,0 -11.805,1.621 -14.734,3.243 z" />
    </g>
  </symbol>
</svg>
